# xmcd CD database file
#
# Track frame offsets:
#	150
#	14305
#	33115
#	45255
#	62930
#	81138
#	92582
#	108658
#	121427
#	134978
#	150783
#	167904
#	179673
#	203849
#	223294
#	237191
#
# Disc length: 3360 seconds
#
# Revision: 0
# Processed by: cddbd v1.5.2PL0 Copyright (c) Steve Scherf et al.
# Submitted via: CDex 1.51
#
DISCID=dd0d1e10
DTITLE=Pinchitos Caliente - Crossing Borders
DYEAR=2005
DGENRE=Country
TTITLE0=Borracho number one   
TTITLE1=Mejor que nada  
TTITLE2=Ay te dejo en San Antonio
TTITLE3=Otras y otras
TTITLE4=Lailola   
TTITLE5=Going loco
TTITLE6=Across the borderline
TTITLE7=Solito
TTITLE8=La tumba sera al final
TTITLE9=Tequila sunrise
TTITLE10=Mendocino
TTITLE11=Ay no digas
TTITLE12=Rio Tenampa
TTITLE13=Secret love
TTITLE14=In heaven there is no beer
TTITLE15=Wooly bully
EXTD=YEAR: 2005
EXTT0=
EXTT1=
EXTT2=
EXTT3=
EXTT4=
EXTT5=
EXTT6=
EXTT7=
EXTT8=
EXTT9=
EXTT10=
EXTT11=
EXTT12=
EXTT13=
EXTT14=
EXTT15=
PLAYORDER=
